<svg data-v-423bf9ae="" xmlns="http://www.w3.org/2000/svg" viewBox="0 0 686.6865405743212 163" class="iconAbove"><!----><!----><!----><g data-v-423bf9ae="" id="c8e01127-3407-4496-8e41-b1423d9c645d" fill="white" transform="matrix(4.477611749096269,0,0,4.477611749096269,-2.1940209636132977,88.26865990046639)"><path d="M0.49 13.30L4.83 13.30C6.96 13.30 8.33 12.53 8.33 10.58C8.33 8.93 7.15 8.20 5.80 8.02L5.80 7.99C7.11 7.73 7.88 6.92 7.88 5.84C7.88 5.07 7.57 4.49 7.01 4.12C6.47 3.75 5.66 3.61 4.54 3.61L0.49 3.61L0.49 4.02C1.72 4.10 1.75 4.13 1.75 4.91L1.75 12.00C1.75 12.78 1.72 12.81 0.49 12.89ZM3.14 11.73L3.14 8.33L4.14 8.33C5.88 8.33 6.83 9.20 6.83 10.68C6.83 12.36 5.68 12.81 4.48 12.81C3.36 12.81 3.14 12.60 3.14 11.73ZM3.14 7.84L3.14 4.80C3.14 4.20 3.18 4.10 4.27 4.10C5.29 4.10 6.41 4.48 6.41 5.92C6.41 7.29 5.53 7.84 4.07 7.84ZM9.32 13.30L13.02 13.30L13.02 12.89C11.77 12.82 11.69 12.80 11.69 12.08L11.69 8.81C11.69 7.73 12.17 7.36 12.49 7.36C12.71 7.36 12.95 7.45 13.36 7.67C13.45 7.73 13.57 7.74 13.64 7.74C13.97 7.74 14.28 7.39 14.28 6.96C14.28 6.65 14.08 6.27 13.54 6.27C13.03 6.27 12.61 6.58 11.69 7.39L11.52 6.27L9.39 6.62L9.39 6.97L9.93 7.04C10.29 7.10 10.37 7.17 10.37 7.67L10.37 12.08C10.37 12.80 10.30 12.82 9.32 12.89ZM14.92 9.87C14.92 12.14 16.03 13.47 18.28 13.47C20.54 13.47 21.64 12.14 21.64 9.87C21.64 7.60 20.54 6.27 18.28 6.27C16.03 6.27 14.92 7.60 14.92 9.87ZM16.38 9.87C16.38 7.94 17.00 6.76 18.28 6.76C19.57 6.76 20.19 7.94 20.19 9.87C20.19 11.80 19.57 12.98 18.28 12.98C17.00 12.98 16.38 11.80 16.38 9.87ZM21.87 6.85C22.44 6.87 22.62 6.92 22.79 7.45C23.38 9.30 24.00 11.19 24.58 13.30L25.65 13.30L27.30 7.97L27.34 7.97C27.93 9.74 28.50 11.52 29.06 13.30L30.13 13.30C30.72 11.24 31.54 8.75 31.89 7.66C32.13 6.94 32.28 6.89 32.98 6.85L32.98 6.44L30.23 6.44L30.23 6.85L31.02 6.92C31.26 6.94 31.28 7.13 31.22 7.38C31.04 8.20 30.39 10.47 29.96 12.05L29.93 12.05C29.33 10.23 28.76 8.43 28.18 6.61L27.12 6.61L25.49 12.05L25.47 12.05C24.96 10.44 24.53 8.82 24.08 7.31C24.00 7.04 24.08 6.92 24.33 6.89L24.82 6.85L24.82 6.44L21.87 6.44ZM33.10 13.30L36.51 13.30L36.51 12.89C35.52 12.82 35.46 12.80 35.46 12.08L35.46 8.81C35.46 8.46 35.49 8.26 35.60 8.04C35.90 7.49 36.53 7.03 37.27 7.03C38.22 7.03 38.74 7.56 38.74 8.78L38.74 12.08C38.74 12.80 38.70 12.82 37.69 12.89L37.69 13.30L41.10 13.30L41.10 12.89C40.11 12.82 40.05 12.80 40.05 12.08L40.05 8.50C40.05 7.08 39.28 6.27 38.00 6.27C36.96 6.27 36.32 6.78 35.45 7.34L35.25 6.27L33.17 6.62L33.17 6.97L33.70 7.04C34.06 7.10 34.15 7.17 34.15 7.67L34.15 12.08C34.15 12.80 34.10 12.82 33.10 12.89ZM42.60 4.14C42.60 4.65 42.95 5.00 43.46 5.00C43.96 5.00 44.31 4.65 44.31 4.14C44.31 3.64 43.96 3.29 43.46 3.29C42.95 3.29 42.60 3.64 42.60 4.14ZM41.76 13.30L45.18 13.30L45.18 12.89C44.18 12.82 44.13 12.80 44.13 12.08L44.13 6.36L44.03 6.27L41.83 6.62L41.83 6.97L42.36 7.04C42.73 7.10 42.81 7.17 42.81 7.67L42.81 12.08C42.81 12.80 42.77 12.82 41.76 12.89ZM45.84 13.30L49.25 13.30L49.25 12.89C48.26 12.82 48.20 12.80 48.20 12.08L48.20 8.81C48.20 8.46 48.23 8.26 48.34 8.04C48.64 7.49 49.27 7.03 50.01 7.03C50.96 7.03 51.48 7.56 51.48 8.78L51.48 12.08C51.48 12.80 51.44 12.82 50.43 12.89L50.43 13.30L53.84 13.30L53.84 12.89C52.85 12.82 52.79 12.80 52.79 12.08L52.79 8.50C52.79 7.08 52.02 6.27 50.74 6.27C49.70 6.27 49.06 6.78 48.19 7.34L47.99 6.27L45.91 6.62L45.91 6.97L46.44 7.04C46.80 7.10 46.89 7.17 46.89 7.67L46.89 12.08C46.89 12.80 46.84 12.82 45.84 12.89ZM54.64 14.64C54.64 16.06 56.04 16.69 57.67 16.69C58.51 16.69 59.39 16.52 60.06 16.11C60.70 15.72 61.17 15.06 61.17 14.20C61.17 12.68 59.96 12.15 58.46 12.15L57.34 12.15C56.34 12.15 56.18 11.82 56.18 11.55C56.18 11.14 56.71 10.92 56.90 10.86C57.16 10.89 57.46 10.91 57.61 10.91C58.94 10.91 60.44 10.32 60.44 8.62C60.44 8.04 60.26 7.55 60.02 7.31L61.12 7.14L61.40 6.26L61.29 6.13L59.50 6.71C59.11 6.44 58.34 6.27 57.69 6.27C55.55 6.27 54.80 7.59 54.80 8.62C54.80 9.94 55.66 10.54 56.31 10.71L56.31 10.74C55.55 11.03 55.02 11.44 55.02 11.98C55.02 12.47 55.58 13.01 56.25 13.08L56.25 13.10C55.65 13.30 54.64 13.64 54.64 14.64ZM55.97 14.57C55.97 14.10 56.11 13.75 56.41 13.52C56.71 13.29 57.18 13.20 57.85 13.20C59.08 13.20 59.99 13.50 59.99 14.55C59.99 15.67 58.98 16.20 57.99 16.20C56.80 16.20 55.97 15.58 55.97 14.57ZM56.22 8.62C56.22 7.24 56.95 6.76 57.69 6.76C58.38 6.76 59.09 7.27 59.09 8.62C59.09 9.80 58.48 10.42 57.67 10.42C56.88 10.42 56.22 9.80 56.22 8.62ZM64.97 13.30L72.24 13.30L72.41 10.79L71.99 10.79C71.71 12.63 70.94 12.81 69.47 12.81C68.77 12.81 68.26 12.78 67.97 12.67C67.68 12.54 67.62 12.31 67.62 11.62L67.62 4.91C67.62 4.13 67.66 4.10 68.96 4.02L68.96 3.61L64.97 3.61L64.97 4.02C66.21 4.10 66.23 4.13 66.23 4.91L66.23 12.00C66.23 12.78 66.21 12.81 64.97 12.89ZM73.12 11.48C73.12 12.53 73.82 13.47 75.14 13.47C75.95 13.47 76.78 12.92 77.22 12.63C77.42 13.15 77.64 13.47 78.13 13.47C78.65 13.47 79.25 13.31 79.79 13.05L79.70 12.71C79.51 12.75 79.20 12.78 78.99 12.73C78.74 12.67 78.50 12.40 78.50 11.52L78.50 8.13C78.50 7.32 78.32 6.27 76.20 6.27C74.62 6.27 73.37 7.10 73.37 7.87C73.37 8.32 73.89 8.53 74.16 8.53C74.45 8.53 74.54 8.37 74.61 8.13C74.91 7.10 75.49 6.76 76.05 6.76C76.59 6.76 77.24 7.04 77.24 8.16L77.24 8.75C76.89 9.11 75.53 9.46 74.42 9.81C73.42 10.12 73.12 10.82 73.12 11.48ZM74.54 11.28C74.54 10.63 74.84 10.29 75.63 10.00C76.19 9.79 76.93 9.52 77.24 9.32L77.24 11.30C77.24 12.43 76.37 12.73 75.82 12.73C74.96 12.73 74.54 12.11 74.54 11.28ZM79.73 6.85C80.30 6.87 80.49 6.92 80.65 7.45C81.24 9.30 81.86 11.19 82.45 13.30L83.51 13.30L85.16 7.97L85.20 7.97C85.79 9.74 86.37 11.52 86.93 13.30L87.99 13.30C88.58 11.24 89.40 8.75 89.75 7.66C89.99 6.94 90.15 6.89 90.85 6.85L90.85 6.44L88.09 6.44L88.09 6.85L88.89 6.92C89.12 6.94 89.14 7.13 89.08 7.38C88.90 8.20 88.26 10.47 87.82 12.05L87.79 12.05C87.19 10.23 86.62 8.43 86.04 6.61L84.98 6.61L83.36 12.05L83.33 12.05C82.82 10.44 82.39 8.82 81.94 7.31C81.86 7.04 81.94 6.92 82.19 6.89L82.68 6.85L82.68 6.44L79.73 6.44ZM90.96 13.30L94.37 13.30L94.37 12.89C93.38 12.82 93.32 12.80 93.32 12.08L93.32 8.81C93.32 8.46 93.35 8.26 93.46 8.04C93.76 7.49 94.39 7.03 95.13 7.03C96.08 7.03 96.60 7.56 96.60 8.78L96.60 12.08C96.60 12.80 96.56 12.82 95.55 12.89L95.55 13.30L98.97 13.30L98.97 12.89C97.97 12.82 97.92 12.80 97.92 12.08L97.92 8.50C97.92 7.08 97.15 6.27 95.86 6.27C94.82 6.27 94.18 6.78 93.31 7.34L93.11 6.27L91.03 6.62L91.03 6.97L91.56 7.04C91.92 7.10 92.01 7.17 92.01 7.67L92.01 12.08C92.01 12.80 91.97 12.82 90.96 12.89ZM102.97 10.84C102.97 12.52 104.29 13.47 106.02 13.47C107.07 13.47 108.01 13.09 108.93 12.28L109.33 12.59C110.00 13.13 110.80 13.30 111.65 13.37L111.94 13.40L112.01 13.05C111.34 12.87 110.25 11.93 109.70 11.40C110.54 10.42 111.12 9.58 111.43 8.68C111.57 8.25 111.58 7.85 111.26 7.24C110.94 7.20 110.54 7.28 110.19 7.48C110.31 8.54 110.24 10.01 109.34 11.05C108.08 9.90 107.20 8.93 106.40 7.95C107.49 7.38 108.44 6.83 108.44 5.71C108.44 4.48 107.51 3.78 106.37 3.78C105.06 3.78 104.09 4.79 104.09 6.01C104.09 6.96 104.57 7.62 105.01 8.18C104.08 8.75 102.97 9.46 102.97 10.84ZM104.33 10.56C104.33 9.45 104.97 8.85 105.29 8.57C106.22 9.67 107.30 10.79 108.56 11.93C107.94 12.46 107.35 12.78 106.44 12.78C105.24 12.78 104.33 11.89 104.33 10.56ZM105.17 5.66C105.17 4.82 105.71 4.27 106.32 4.27C107.02 4.27 107.37 4.87 107.37 5.63C107.37 6.43 106.85 7.08 106.08 7.62C105.50 6.97 105.17 6.36 105.17 5.66ZM115.85 13.30L119.76 13.30L119.76 12.89C118.54 12.81 118.50 12.78 118.50 12.00L118.50 8.53L123.40 8.53L123.40 12.00C123.40 12.78 123.37 12.81 122.14 12.89L122.14 13.30L126.04 13.30L126.04 12.89C124.82 12.81 124.78 12.78 124.78 12.00L124.78 4.91C124.78 4.13 124.82 4.10 126.04 4.02L126.04 3.61L122.14 3.61L122.14 4.02C123.37 4.10 123.40 4.13 123.40 4.91L123.40 7.99L118.50 7.99L118.50 4.91C118.50 4.13 118.54 4.10 119.76 4.02L119.76 3.61L115.85 3.61L115.85 4.02C117.08 4.10 117.11 4.13 117.11 4.91L117.11 12.00C117.11 12.78 117.08 12.81 115.85 12.89ZM126.80 9.87C126.80 12.14 127.90 13.47 130.16 13.47C132.41 13.47 133.52 12.14 133.52 9.87C133.52 7.60 132.41 6.27 130.16 6.27C127.90 6.27 126.80 7.60 126.80 9.87ZM128.25 9.87C128.25 7.94 128.87 6.76 130.16 6.76C131.45 6.76 132.06 7.94 132.06 9.87C132.06 11.80 131.45 12.98 130.16 12.98C128.87 12.98 128.25 11.80 128.25 9.87ZM134.64 13.30L138.05 13.30L138.05 12.89C137.06 12.82 137.00 12.80 137.00 12.08L137.00 8.81C137.00 8.46 137.02 8.26 137.12 8.06C137.38 7.50 138.00 7.03 138.77 7.03C139.97 7.03 140.11 7.91 140.11 8.78L140.11 12.08C140.11 12.80 140.07 12.82 139.06 12.89L139.06 13.30L142.48 13.30L142.48 12.89C141.48 12.82 141.43 12.80 141.43 12.08L141.43 8.81C141.43 8.46 141.44 8.26 141.53 8.04C141.74 7.48 142.34 7.03 143.12 7.03C144.00 7.03 144.54 7.53 144.54 8.78L144.54 12.08C144.54 12.80 144.49 12.82 143.49 12.89L143.49 13.30L146.90 13.30L146.90 12.89C145.91 12.82 145.85 12.80 145.85 12.08L145.85 8.50C145.85 7.08 145.10 6.27 143.77 6.27C142.62 6.27 141.79 7.04 141.30 7.35C140.97 6.69 140.43 6.27 139.45 6.27C138.38 6.27 137.49 6.97 137.00 7.34L136.88 6.27L134.71 6.62L134.71 6.97L135.24 7.04C135.60 7.10 135.69 7.17 135.69 7.67L135.69 12.08C135.69 12.80 135.65 12.82 134.64 12.89ZM147.80 9.93C147.80 12.14 148.75 13.47 151.03 13.47C152.59 13.47 153.38 12.60 153.76 11.49L153.34 11.27C152.95 12.08 152.42 12.75 151.31 12.75C149.58 12.75 149.23 11.07 149.25 9.62L153.29 9.62C153.58 9.62 153.85 9.55 153.85 9.09C153.85 8.26 153.58 6.27 151.02 6.27C148.83 6.27 147.80 7.83 147.80 9.93ZM149.27 9.09C149.27 8.51 149.48 6.76 150.93 6.76C152.24 6.76 152.39 8.09 152.39 8.64C152.39 8.90 152.31 9.09 151.91 9.09Z"></path></g><!----><g data-v-423bf9ae="" id="e629eb74-5bf0-44f9-9939-964724793c25" transform="matrix(1.4569954643659855,0,0,1.4569954643659855,278.41410972983715,-18.98115720942421)" stroke="none" fill="white"><path d="M51.993 51.652l.398-.163c.59.409 1.223.316 1.828.234 1.225-.169 2.177-.593 3.438-.767 1.473-.204 4.797-2.02 4.262.635-.185.921-1.088 2.773-1.604 3.533-.587.856-1.43 1.235-2.378 1.434-.961.199-1.925-.406-2.818-.018-.758.33-1.335 1.579-1.77 2.295-1.049 1.714-1.889 7.632-3.043 9.255-.952 1.345-2.028 4.91-3.609 5.91h-.114c0 .708-.81.858-1.583.858s-1.584.064-1.584-.858h-.113c-1.581-1-2.657-4.565-3.609-5.909-1.153-1.623-1.995-7.657-3.043-9.37-.438-.717-1.014-1.909-1.771-2.238-.895-.39-1.858.249-2.817.05-.949-.197-1.792-.564-2.376-1.422-.518-.76-1.421-2.604-1.606-3.526-.535-2.654 2.788-.836 4.264-.633 1.261.176 2.213.596 3.437.764.604.083 1.24.176 1.827-.233l.399.157s2.738-1.737 2.682-2.336c-.004-.051-.02-.094-.034-.151.843.51 2.16.849 3.466.849h1.757c1.221 0 2.45-.279 3.293-.752a1.807 1.807 0 0 0-.075.324c-.056.597 2.896 2.078 2.896 2.078zm-11.338-2.486c-.143-.602-.739-1.461-.979-1.916-.135-.251-1.431-1.525-1.565-1.729a8.547 8.547 0 0 1-.62-1.06c-.198-.404-.39-.849-.572-1.294 0 0-.199-1.129-.285-1.358-.169-.458-.244-.921-.382-1.396-.131-.468-.332-1.165-.483-1.741-.2.196-.28 1.463-.319 1.768-.07.564-.039 1.124-.001 1.678.019.276.201 1.368.272 1.635.141.535.536 1.676.793 2.2.225.457-2.654-.838-3.568-2.025-.695-.9-2.956-2.6-5.345-5.806-.31-.415-1.235-1.313-1.279-1.899-.631.785.514 3.297.798 3.83.289.531.967 1.264 1.351 1.717a812.59 812.59 0 0 1 1.782 2.132c-.923-.496-1.648-.817-2.924-1.577-.35-.209-.643-.406-.906-.598-1.482-1.721-3.041-4.723-3.625-5.762-.59-1.053-1.12-2.098-1.414-3.191-.067-.239-.173-1.417-.202-1.712a2.235 2.235 0 0 1 .489-1.662.95.95 0 0 0-.503.159c-.155.1-.292.23-.405.373a3.574 3.574 0 0 0-.527.936c-.127.33-.224.669-.289 1.015a8.681 8.681 0 0 0-.095 1.089c.022.726.172 1.424.391 2.088.154.462.178.817.391 1.239-.486-.551-1.802-2.014-2.168-2.895-.122-.29-.288-1.351-.266-2.282.166-.848.347-1.505.56-2.438.042-.181.962-4.171 1.119-4.294.077-.063 1.09-1.946 1.173-2.02 0 0 .775-.94.874-1.121.096-.179 1.533-2.232 1.638-2.593.223-.764-.206-.96-.206-.96-.302-.132-.417-.084-.559-.062-.541.231-2.114 2.02-2.114 2.02-.679.764-1.27 1.127-1.27 1.127-.582.397-1.499-.022-1.869-.796a3.633 3.633 0 0 1-.153-1.137c.027-1.1.19-2.081.384-2.897.021-.096.438-2.046.381-2.863-.133.017-.964 1.188-1.205 1.771 0 0-.979 2.023-1.034 3.279-.164.983-.075 2.121.136 3.057.215.935.517 1.36.574 2.225.054.894.089 2.367.055 3.317-.038.955-.064 1.521-.491 2.43 0 0-.375 1.127-.466 1.516-.305 1.322-1.832-.195-1.832-.195-.807-.922-1.325-1.526-1.918-2.604-.276-.776-.232-1.238-.247-1.666-.029-1.151.273-3.507.411-4.659.127-1.11.195-4.159.037-6.396-.013-.179.009-.972-.108-1.305-.173.035-1.844 5.869-1.995 7.142-.142 1.172-.725 3.331-.757 4.606-1.596-1.19-1.979-2.516-1.979-2.516-.653.302-.254 2.161-.036 2.809.654 1.946 2.517 4.249 2.587 4.348.74 1.129 1.489 2.173 2.322 3.122.133.153 2.974 3.265 3.373 3.561.453.335 3.9 3.792 5.276 4.805.994.734 7.372 4.708 10.47 5.792 1.099.384 4.079 2.075 4.393 2.275.484.308 1.703 1.322 1.812 1.655l.073.03.399.163s2.738-1.725 2.682-2.319c-.005-.05-.021-.108-.035-.165zm42.01-26.075s-.386 1.325-1.982 2.516c-.029-1.275-.613-3.434-.754-4.606-.153-1.272-1.822-7.107-1.996-7.142-.115.333-.098 1.126-.106 1.305-.161 2.236-.094 5.285.034 6.396.14 1.152.441 3.508.412 4.659-.016.427.028.889-.247 1.666-.594 1.077-1.112 1.682-1.92 2.604 0 0-1.525 1.517-1.832.195-.089-.388-.463-1.516-.463-1.516-.431-.909-.456-1.475-.491-2.43-.036-.95 0-2.423.052-3.317.058-.864.36-1.29.575-2.225.21-.937.298-2.074.136-3.057-.055-1.256-1.032-3.279-1.032-3.279-.244-.583-1.072-1.754-1.206-1.771-.058.817.357 2.768.38 2.863.195.816.357 1.797.385 2.897.007.346-.028.726-.154 1.137-.369.774-1.286 1.193-1.865.796 0 0-.593-.363-1.271-1.127 0 0-1.574-1.789-2.116-2.02-.141-.022-.254-.07-.557.062 0 0-.429.196-.206.96.104.36 1.541 2.414 1.639 2.593.098.18.872 1.121.872 1.121.082.074 1.096 1.957 1.174 2.02.156.123 1.078 4.113 1.119 4.294.212.933.395 1.59.56 2.438.021.932-.146 1.992-.265 2.282-.368.88-1.683 2.343-2.17 2.895.212-.422.237-.777.391-1.239.218-.664.37-1.362.391-2.088a8.477 8.477 0 0 0-.097-1.089 5.48 5.48 0 0 0-.288-1.015 3.542 3.542 0 0 0-.526-.936 1.703 1.703 0 0 0-.403-.373.952.952 0 0 0-.507-.159c.466.588.538 1.178.491 1.662-.029.294-.136 1.473-.203 1.712-.293 1.094-.823 2.138-1.414 3.191-.582 1.04-2.141 4.041-3.625 5.762-.262.191-.555.388-.907.598-1.274.76-2 1.082-2.922 1.577 0 0 1.591-1.906 1.782-2.132.385-.453 1.062-1.186 1.348-1.717.286-.532 1.432-3.044.801-3.83-.044.586-.97 1.485-1.278 1.899-2.39 3.206-4.649 4.906-5.346 5.806-.913 1.188-3.794 2.482-3.568 2.025.259-.524.653-1.666.794-2.2.071-.267.254-1.358.273-1.635.036-.554.068-1.113-.006-1.678-.036-.305-.116-1.572-.317-1.768-.148.576-.351 1.273-.482 1.741-.136.475-.211.938-.382 1.396-.084.229-.286 1.358-.286 1.358-.183.445-.372.89-.57 1.294a9.103 9.103 0 0 1-.62 1.06c-.134.204-1.433 1.478-1.564 1.729-.225.428-.923 1.373-1.152 2.013a1.499 1.499 0 0 0-.075.29c-.056.597 2.896 2.1 2.896 2.1l.398-.163.075-.03c.106-.333 1.328-1.348 1.81-1.655.315-.2 3.295-1.892 4.394-2.275 3.099-1.084 9.479-5.058 10.47-5.792 1.378-1.014 4.826-4.47 5.276-4.805.4-.296 3.239-3.408 3.376-3.561.828-.949 1.58-1.993 2.318-3.122.071-.099 1.935-2.402 2.589-4.348.211-.651.613-2.509-.04-2.812z"></path></g><!----></svg>